/* XPM */
static char *_8139b93b346440b8a9b88284ac59c879QJ72wZBd9d94UZ0[] = {
/* columns rows colors chars-per-pixel */
"16 16 102 2 ",
"   c None",
".  c #4E7E7E",
"X  c #00B816",
"o  c #00BC16",
"O  c #1DB23E",
"+  c #1DBC3E",
"@  c #00C017",
"#  c #00C217",
"$  c #00C517",
"%  c #00C617",
"&  c #00C817",
"*  c #00C917",
"=  c #00CB18",
"-  c #00CC18",
";  c #00CF18",
":  c #00D218",
">  c #00D318",
",  c #00D419",
"<  c #00DA19",
"1  c #00DC19",
"2  c #00DD1A",
"3  c #00E01A",
"4  c #00E21A",
"5  c #00E81B",
"6  c #00EA1B",
"7  c #00EC1B",
"8  c #00ED1B",
"9  c #00F11C",
"0  c #00F21C",
"q  c #00F41C",
"w  c #00F61C",
"e  c #00F71C",
"r  c #00FB1D",
"t  c #00FC1D",
"y  c #00FE1D",
"u  c #09C725",
"i  c #09DC26",
"p  c #13C332",
"a  c #13C432",
"s  c #1DC53F",
"d  c #13D434",
"f  c #09E627",
"g  c #13E735",
"h  c #309756",
"j  c #27AD4B",
"k  c #3A8E64",
"l  c #3A9F66",
"z  c #4E827F",
"x  c #4E847F",
"c  c #4E877F",
"v  c #498979",
"b  c #449B73",
"n  c #40A76E",
"m  c #44A974",
"M  c #1DCD40",
"N  c #27CA4E",
"B  c #27CF4F",
"V  c #587D8B",
"C  c #587E8C",
"Z  c #617398",
"A  c #755BB1",
"S  c #755CB1",
"D  c #755DB2",
"F  c #755EB2",
"G  c #7F53BF",
"H  c #6B6AA6",
"J  c #7566B3",
"K  c #7568B3",
"L  c #756EB3",
"P  c #7F5AC0",
"I  c #7F5DC0",
"U  c #7F60C0",
"Y  c #7F62C0",
"T  c #8736C8",
"R  c #8936C9",
"E  c #8B35CB",
"W  c #8C37CE",
"Q  c #8C38CF",
"!  c #8D36D1",
"~  c #8E37D1",
"^  c #8F38D3",
"/  c #9038D4",
"(  c #9038D5",
")  c #9139D7",
"_  c #933AD9",
"`  c #963BDC",
"'  c #963BDD",
"]  c #993CE1",
"[  c #9C3DE6",
"{  c #8654C9",
"}  c #9246DA",
"|  c #9247DA",
" . c #9248DA",
".. c #9249DA",
"X. c #4E8980",
"o. c #58808C",
"O. c #558989",
"+. c #578B8D",
"@. c #4E9180",
"#. c #4E9B82",
"$. c #4E9D82",
"%. c #4E9E82",
/* pixels */
"          E ( ( ( ^ ~           ",
"      W ( [ [ [ [ [ ] R         ",
"    [ ] [ Y %.%.%.%.[ [ _       ",
"  Q [ [ ..g t t r 0 +.[ [ (     ",
"  _ [ [ m e e 8 8 6 i } [ [ T   ",
"~ [ [ } o.C V K b 3 1 l [ [ _   ",
"' [ [ j - $ . [ ..p : u } [ [ W ",
"[ [ J < , O [ [ [ H & v B [ [ Q ",
"[ [ d 3 1 P [ [ [ [ h n e #.[ ( ",
"` U 0 6 s [ [ ] [ [ I 6 8 f ..W ",
"^ [ B 0 8 K x x c X.+ 1 3 @._   ",
"  ( L t e s k $ $ = - , a } R   ",
"  Q [ B t e O.o o @ $ = Z (     ",
"    [ { L L { G A A F F _       ",
"      Q ( [ [ [ [ [ ] R         ",
"          R ] [ [ ' ~           "
};
