/* XPM */
static char *ef490dd0e2484ba9ec676c45c956bf5fJQl3FSYIYDoOodPt[] = {
/* columns rows colors chars-per-pixel */
"64 64 109 2 ",
"   c None",
".  c #4E7D7E",
"X  c #00B615",
"o  c #00BC16",
"O  c #09AC22",
"+  c #13AD2F",
"@  c #09B623",
"#  c #09BD24",
"$  c #1DAE3D",
"%  c #13B430",
"&  c #13BA31",
"*  c #1DB43E",
"=  c #1DBE3E",
"-  c #00C417",
";  c #00C917",
":  c #00CD18",
">  c #00D318",
",  c #00DB19",
"<  c #00E41A",
"1  c #00EC1B",
"2  c #00F31C",
"3  c #00FC1D",
"4  c #09C625",
"5  c #09CC26",
"6  c #09D426",
"7  c #09DB26",
"8  c #13C532",
"9  c #13CA33",
"0  c #1DC33F",
"q  c #13D233",
"w  c #13DB35",
"e  c #09E227",
"r  c #09EB28",
"t  c #09F229",
"y  c #13E635",
"u  c #279A4A",
"i  c #27A24A",
"p  c #27AC4B",
"a  c #27B54D",
"s  c #27BD4D",
"d  c #30A358",
"f  c #30A858",
"g  c #30B35A",
"h  c #30BC5A",
"j  c #3A9364",
"k  c #3A9B65",
"l  c #3AA466",
"z  c #3AAA67",
"x  c #3AB468",
"c  c #448370",
"v  c #4E827F",
"b  c #449B73",
"n  c #44A273",
"m  c #44AA74",
"M  c #1DCC40",
"N  c #1DD341",
"B  c #27C34D",
"V  c #27CC4E",
"C  c #30C35B",
"Z  c #762EAE",
"A  c #792FB3",
"S  c #7C31B7",
"D  c #7F32BB",
"F  c #577D8C",
"G  c #616D97",
"H  c #617098",
"J  c #617898",
"K  c #755FB2",
"L  c #7F55BF",
"P  c #6B66A5",
"I  c #6B6AA6",
"U  c #6B73A6",
"Y  c #6B7AA7",
"T  c #7564B2",
"R  c #756DB3",
"E  c #7F5CC0",
"W  c #7F61C0",
"Q  c #8233BF",
"!  c #8534C4",
"~  c #8936CA",
"^  c #8D37D0",
"/  c #9038D5",
"(  c #953BDB",
")  c #9C3DE6",
"_  c #884ECC",
"`  c #8853CC",
"'  c #9247DA",
"]  c #9246DA",
"[  c #9245D9",
"{  c #9248DA",
"}  c #9249DA",
"|  c #4E8980",
" . c #4E8B80",
".. c #4E8F80",
"X. c #57808C",
"o. c #57838C",
"O. c #57878C",
"+. c #578A8D",
"@. c #578B8D",
"#. c #578F8D",
"$. c #4E9180",
"%. c #4E9281",
"&. c #4E9481",
"*. c #4E9781",
"=. c #4E9C82",
"-. c #4E9D82",
";. c #4E9E82",
":. c #57918E",
">. c #61829A",
/* pixels */
"                                                    ) ) ) ) ) ) ) ) ) ) ) )                                                     ",
"                                            ) ) ) ) / ! Q S S A A A A ! ~ / ) ) ) )                                             ",
"                                        ) ) / ! ! ~ / / ( ) ) ) ) ) ) / / / Q Q ~ ( ) )                                         ",
"                                  ) ) ( D S ^ ) ) ) ) ) ) ) ) ) ) ) ) ) ) ) ) ) ( ~ A ~ ) )                                     ",
"                              ) ) / A D [ ) ) ) ) ) ) ) ) ) ) ) ) ) ) ) ) ) ) ) ) ) ( ~ Z ~ ( )                                 ",
"                            ) ( S D ( ) ) ) ) ) ) ) ) ) ) ) ) ) ) ) ) ) ) ) ) ) ) ) ) ) ) ~ A ! ) )                             ",
"                        ) ) ! A / ) ) ) ) ) ) ) ) ) ) ) ) ) ) ) ) ) ) ) ) ) ) ) ) ) ) ) ) ) ) ~ Z / )                           ",
"                      ) ) S ~ ) ) ) ) ) ) ) ) ) ) ) ) ) ) ) ) ) ) ) ) ) ) ) ) ) ) ) ) ) ) ) ) ) ) A ~ )                         ",
"                    ) ( A / ) ) ) ) ) ) ) ) ) ) ) ) ) ) ) ) ) ) ) ) ) ) ) ) ) ) ) ) ) ) ) ) ) ) ) ) Q Q )                       ",
"                  ) ) Q ) ) ) ) ) ) ) ) ) ) ) ) ) ) ) ) ) ) ) ) ) ) ) ) ) ) ) ) ) ) ) ) ) ) ) ) ) ) ) ~ Q )                     ",
"                ) ( ~ ) ) ) ) ) ) ) ) ) ) ) ) R R R R R R R R R R R R R R R R R ` ) ) ) ) ) ) ) ) ) ) ) ( ! )                   ",
"              ) ) ! ) ) ) ) ) ) ) ) ) ) ) ) ;.t 3 3 3 3 3 3 3 3 3 3 3 t 3 3 2 3 V ) ) ) ) ) ) ) ) ) ) ) ) ( Q )                 ",
"            ) ) S ) ) ) ) ) ) ) ) ) ) ) ) ` t 3 3 3 3 3 3 3 3 3 3 3 3 3 3 2 3 2 2 >.) ) ) ) ) ) ) ) ) ) ) ) ~ ! )               ",
"            ) S ( ) ) ) ) ) ) ) ) ) ) ) ) C 3 3 3 3 3 3 3 3 3 3 3 3 2 3 2 2 2 2 2 r { ) ) ) ) ) ) ) ) ) ) ) ) Q ( )             ",
"          ) Q ~ ) ) ) ) ) ) ) ) ) ) ) ) R 3 3 3 3 3 3 3 3 3 2 2 3 2 2 2 2 2 2 2 2 1 n ) ) ) ) ) ) ) ) ) ) ) ) ( D ) )           ",
"        ) / S ) ) ) ) ) ) ) ) ) ) ) ) ) y 3 3 3 3 3 3 3 2 3 2 2 2 2 2 2 2 2 1 1 1 1 1 W ) ) ) ) ) ) ) ) ) ) ) ) ( Q )           ",
"        ) A ( ) ) ) ) ) ) ) ) ) ) ) ) :.t 3 3 3 3 2 3 2 2 2 2 2 2 2 1 1 1 1 1 1 1 1 < M ) ) ) ) ) ) ) ) ) ) ) ) ) ~ ^ )         ",
"      ) ~ ! ) ) ) ) ) ) ) ) ) ) ) ) } r 3 3 2 3 2 2 2 2 2 2 2 2 1 2 1 1 1 1 1 1 1 1 < < +.) ) ) ) ) ) ) ) ) ) ) ) ) Z )         ",
"      ) Z ) ) ) ) ) ) ) ) ) ) ) ) ) m 3 2 3 2 2 2 2 2 2 2 1 2 1 1 1 1 1 1 1 < 1 < < < < 7 [ ) ) ) ) ) ) ) ) ) ) ) ) ! ~ )       ",
"    ) ~ ! ) ) ) ) ) ) ) ) ) ) ) ) R 3 3 2 2 2 2 2 2 1 1 2 1 1 1 1 1 1 1 < < 1 < < < < < < l ) ) ) ) ) ) ) ) ) ) ) ) ) Z )       ",
"    ) A ( ) ) ) ) ) ) ) ) ) ) ) ) w 2 2 2 2 2 2 1 1 1 1 1 1 1 1 1 < < < < < < < < < < , , , T ) ) ) ) ) ) ) ) ) ) ) ) Q ^ )     ",
"  ) ( D ) ) ) ) ) ) ) ) ) ) ) ) R B B B B B B B s s B B s s s s s s 7 < < , < , , , , , , , 8 ) ) ) ) ) ) ) ) ) ) ) ) ( Q )     ",
"  ) ~ ( ) ) ) ) ) ) ) ) ) ) ) ) ) ) ) ) ) ) ) ) ) ) ) ) ) ) ) ) ) ) %.< < < , , , , , , , , , v ) ) ) ) ) ) ) ) ) ) ) ) Q )     ",
"  ) ! ) ) ) ) ) ) ) ) ) ) ) ) I v X.v v . . . . . . . F [ ) ) ) ) ) ) 9 , , , , , , > , > , > 5 ` ) ) ) ) ) ) ) ) ) ) ) / ^ )   ",
"  ) ! ) ) ) ) ) ) ) ) ) ) ) ` : ; ; ; ; - - o o o o o c ) ) ) ) ) ) ) T , , , > > , > > > > > : d ) ) ) ) ) ) ) ) ) ) ) ( ! )   ",
") / / ) ) ) ) ) ) ) ) ) ) ) p : : : ; ; - - ; - - o @ [ ) ) ) ) ) ) ) ) d , , > > > > > > > > : : T ) ) ) ) ) ) ) ) ) ) ) A )   ",
") ! ) ) ) ) ) ) ) ) ) ) ) I > > : : ; ; ; ; ; - - o G ) ) ) ) ) ) ) ) ) _ 5 > > > > > > : : : : & ) ) ) ) ) ) ) ) ) ) ) ) A )   ",
") Q ) ) ) ) ) ) ) ) ) ) ] 8 > > > > : : ; ; ; ; - i ) ) ) ) ) ) ) ) ) ) ) F > > > : ; : : ; : : I ) R ) ) ) ) ) ) ) ) ) ) Q ( ) ",
") A ) ) ) ) ) ) ) ) ) ) | , > > > > > : : ; ; ; ; _ ) ) ) ) ) ) ) ) ) ) ) ) * : : : : : ; ; ; i ) R t ` ) ) ) ) ) ) ) ) ) ! / ) ",
") ! ) ) ) ) ) ) ) ) ) ` , , > , > > > : > : : ; v ) ) ) ) ) ) ) ) ) ) ) ) ) T : ; ; ; ; ; ; ; ` ) y 3 C ) ) ) ) ) ) ) ) ) / ! ) ",
") ! ) ) ) ) ) ) ) ) ) a , , , , > > > > : : : & [ ) ) ) ) ) ) ) ) ) ) ) ) ) ) j ; ; - ; ; - j ) n 3 3 t Y ) ) ) ) ) ) ) ) / ! ) ",
") ! ) ) ) ) ) ) ) ) U < , , , , , > , > > > : T ) ) ) ) ) ) ) ) ) ) ) ) ) ) ) ] # - - - - # ] ` t 3 3 3 y } ) ) ) ) ) ) ) / ! ) ",
") ! ) ) ) ) ) ) ) } w < < < , , , , , > > > d ) ) ) ) ) ) ) ) ) ) ) ) ) ) ) ) ) H - - - - . ) h 2 3 3 3 3 m ) ) ) ) ) ) ) ( Q ) ",
") ~ ) ) ) ) ) ) ) %.< < < < < < , , , , , 5 _ ) ) ) ) ) ) ) ) ) ) ) ) ) ) ) ) ) ) i o o + ( R 2 2 2 3 2 3 3 W ) ) ) ) ) ) / ! ) ",
") ! ) ) ) ) ) ) ` < < < < < < < , , , , , F ) ) ) ) ) ) ) ) ) ) ) ) ) ) ) ) ) ) ) ` o o P ) w 2 2 2 2 2 2 3 V ) ) ) ) ) ) / ! ) ",
") S ) ) ) ) ) ) B 2 2 < < < < < < < , , s ) ) ) ) ) ) ) ) ) ) ) ) ) ) ) ) ) ) ) ) ) c u ) +.1 2 2 2 2 2 2 2 2 #.) ) ) ) ) ~ ^ ) ",
") D ) ) ) ) ) Y 2 1 1 1 1 < < < < < , , R ) ) ) ) ) ) ) ) ) ) ) ) ) ) ) ) ) ) ) ) ) ] L } e < 2 2 1 1 2 2 2 2 r } ) ) ) ) Q / ) ",
") ! ) ) ) ) ) w 2 1 2 1 1 1 1 < < < < l ) ) ) ) ) ) ) ) ) ) ) ) ) ) ) ) ) ) ) ) ) ) ) ) z < 1 1 1 1 2 1 1 2 2 2 h ) ) ) ) S )   ",
") / / ) ) ) ] V 2 2 2 1 1 1 1 1 < < < s ) ) ) ) ) ) ) ) ) ) ) ) ) ) ) ) ) ) ) ) ) ) ) R < < < < 1 1 1 1 1 1 2 1 *.) ) ) ) S )   ",
"  ) ! ) ) ) ) ` 2 2 2 2 1 2 1 < 1 < < < R ) ) ) ) ) ) ) ) ) ) ) ) ) ) ) ) ) ) ) ) ) ) 0 < < < < < 1 < 1 1 1 1 w } ) ) ) ( Q )   ",
"  ) Q ) ) ) ) ) x 2 2 2 2 1 2 1 1 1 < 1 q ] ) ) ) ) ) ) ) ) ) ) ) ) ) ) ) ) ) ) ) ) o.< , < < < < < < < < < < U ) ) ) ) / ~ )   ",
"  ) ~ ( ) ) ) ) } r 3 2 2 2 1 2 2 1 1 < < b ) ) ) ) ) ) ) ) ) ) ) ) ) ) ) ) ) ) ) ] 6 , < , , < < < < < < 1 B ) ) ) ) ) ! )     ",
"  ) ( D ) ) ) ) ) =.3 3 2 2 2 2 1 1 < 1 < < ` ) % - - ; : ; : : : > 5 > > > > > > , > , , , , , < < < < < < ` ) ) ) ) ( Q )     ",
"    ) S ( ) ) ) ) ) y 3 3 2 2 2 2 2 2 1 1 r g ) I - - - ; ; ; ; : : : : : : > > > > > > > , , , , , , , < n ) ) ) ) ) Q ^ )     ",
"    ) ~ ! ) ) ) ) ) Y 3 3 2 2 2 2 2 2 1 1 1 < R ) u - - - - ; ; ; ; : : : : : > > > > > > > , , , , , , 6 { ) ) ) ) ) Z )       ",
"      ) Z ) ) ) ) ) ) V 3 3 3 2 2 2 2 2 2 1 < w ) _ o - o - - ; ; ; : : - : : : : > : > > > > > > , , , J ) ) ) ) ) ! ~ )       ",
"      ) ~ ! ) ) ) ) ) W 3 3 3 3 2 2 2 2 2 1 2 < b ) . o o - - o - - - - : ; - : : : : : > > : > > > > a ) ) ) ) ) ) Z )         ",
"        ) A ( ) ) ) ) ) x 3 3 3 3 3 2 2 2 2 2 2 e ` [ + o o - o o - - - - ; - : : : : : : > > : > > > L ) ) ) ) ) ! / )         ",
"        ) / S ) ) ) ) ) } t 3 3 3 3 3 2 2 2 2 1 1 z ) G o o o o o - o - - - - - - ; : : : : : : > > k ) ) ) ) ) ( Q )           ",
"          ) Q ~ ) ) ) ) ) ;.3 3 3 3 3 3 3 2 2 2 2 2 R ) u o X o o o o o o - - - - - ; - ; ; : : : 4 [ ) ) ) ) ) D ) )           ",
"            ) S ( ) ) ) ) ) y 3 3 3 3 3 3 3 2 2 2 2 0 ) L X X o o o o o o - o - - - ; - - ; ; ; ; F ) ) ) ) ) D / )             ",
"            ) ) S ) ) ) ) ) Y 3 3 3 3 t 3 2 3 2 2 2 2 #.( . X X X X o X o o o o o o o - - - - ; $ ) ) ) ) ) ~ ! )               ",
"              ) ) ! ) ) ) ) ) V 3 3 3 3 3 3 3 3 2 2 2 r } [ O X X X X X o o o o o o - o - - - - K ) ) ) ) ( D )                 ",
"                ) ( ~ ) ) ) ) ) ) ) ) ) ) ) ) ) ) ) ) ) ) ) ) ) ) ) ) ) ) ) ) ) ) ) ) ) ) ) ) ) ) ) ) ) ( ! )                   ",
"                  ) ) Q ) ) ) ) ) ) ) ) ) ) ) ) ) ) ) ) ) ) ) ) ) ) ) ) ) ) ) ) ) ) ) ) ) ) ) ) ) ) ) ~ Q )                     ",
"                    ) [ A ( ) ) ) ) ) ) ) ) ) ) ) ) ) ) ) ) ) ) ) ) ) ) ) ) ) ) ) ) ) ) ) ) ) ) ) ) Q Q )                       ",
"                      ) ) Q ! ) ) ) ) ) ) ) ) ) ) ) ) ) ) ) ) ) ) ) ) ) ) ) ) ) ) ) ) ) ) ) ) ) ( S / )                         ",
"                        ) ) / S ( ) ) ) ) ) ) ) ) ) ) ) ) ) ) ) ) ) ) ) ) ) ) ) ) ) ) ) ) ) ) ~ Q ) )                           ",
"                            ) ) S D ( ) ) ) ) ) ) ) ) ) ) ) ) ) ) ) ) ) ) ) ) ) ) ) ) ) ) ~ A / ) )                             ",
"                              ) ) / A D / ) ) ) ) ) ) ) ) ) ) ) ) ) ) ) ) ) ) ) ) ) ) ~ Z ! ( )                                 ",
"                                  ) ) ( D S ^ ) ) ) ) ) ) ) ) ) ) ) ) ) ) ) ) ) ) ! A ! ) )                                     ",
"                                        ) ) ^ Q D S ! ^ ( ) ) ) ) ) ) / ^ ! A D ! ( ) )                                         ",
"                                            ) ) ) ) ^ ~ ! A A A S A A ! ~ / ) ) ) )                                             ",
"                                                    ) ) ) ) ) ) ) ) ) ) ) )                                                     "
};
