/* XPM */
static char *_e369d5ffa814ca9981b77c7cb711b166lZYWddzzqVJkkOn[] = {
/* columns rows colors chars-per-pixel */
"32 32 210 2 ",
"   c None",
".  c #4E777E",
"X  c #4E787E",
"o  c #4E797E",
"O  c #4E7A7E",
"+  c #4E7B7E",
"@  c #4E7C7E",
"#  c #4E7D7E",
"$  c #4E7E7F",
"%  c #4E7F7F",
"&  c #00B615",
"*  c #00B916",
"=  c #00BB16",
"-  c #00BC16",
";  c #00BD16",
":  c #00BE16",
">  c #00BF16",
",  c #13AB2F",
"<  c #09BC24",
"1  c #13B130",
"2  c #13B330",
"3  c #13BC31",
"4  c #1DBA3E",
"5  c #00C016",
"6  c #00C117",
"7  c #00C217",
"8  c #00C317",
"9  c #00C417",
"0  c #00C517",
"q  c #00C617",
"w  c #00C717",
"e  c #00C817",
"r  c #00C917",
"t  c #00CA17",
"y  c #00CA18",
"u  c #00CB18",
"i  c #00CC18",
"p  c #00CD18",
"a  c #00CE18",
"s  c #00CF18",
"d  c #00D018",
"f  c #00D118",
"g  c #00D218",
"h  c #00D318",
"j  c #00D419",
"k  c #00D519",
"l  c #00D619",
"z  c #00D719",
"x  c #00D819",
"c  c #00D919",
"v  c #00DA19",
"b  c #00DB19",
"n  c #00DC19",
"m  c #00DE1A",
"M  c #00DF1A",
"N  c #00E01A",
"B  c #00E11A",
"V  c #00E21A",
"C  c #00E31A",
"Z  c #00E41A",
"A  c #00E51A",
"S  c #00E61A",
"D  c #00E71A",
"F  c #00E71B",
"G  c #00E81B",
"H  c #00E91B",
"J  c #00EA1B",
"K  c #00EB1B",
"L  c #00EC1B",
"P  c #00ED1B",
"I  c #00EE1B",
"U  c #00EF1B",
"Y  c #00F01B",
"T  c #00F11C",
"R  c #00F21C",
"E  c #00F31C",
"W  c #00F41C",
"Q  c #00F51C",
"!  c #00F61C",
"~  c #00F71C",
"^  c #00F81C",
"/  c #00F91C",
"(  c #00FA1C",
")  c #00FA1D",
"_  c #00FB1D",
"`  c #00FC1D",
"'  c #00FD1D",
"]  c #00FE1D",
"[  c #00FF1D",
"{  c #09CC26",
"}  c #09D126",
"|  c #09D426",
" . c #09DB26",
".. c #09DE27",
"X. c #13CC33",
"o. c #13CE33",
"O. c #13D934",
"+. c #09E527",
"@. c #09EC28",
"#. c #09F229",
"$. c #09F429",
"%. c #13E435",
"&. c #13E735",
"*. c #279D4A",
"=. c #309C57",
"-. c #27A14A",
";. c #27AA4B",
":. c #27B84D",
">. c #27BD4D",
",. c #27BE4D",
"<. c #27BF4D",
"1. c #30A158",
"2. c #30A758",
"3. c #3AA466",
"4. c #3AB668",
"5. c #4E837F",
"6. c #449A73",
"7. c #449C73",
"8. c #44A574",
"9. c #44AB74",
"0. c #1DD241",
"q. c #27C14D",
"w. c #27C34D",
"e. c #27C44E",
"r. c #27C54E",
"t. c #27CA4E",
"y. c #27CB4F",
"u. c #27CD4F",
"i. c #27CE4F",
"p. c #27CF4F",
"a. c #30C35B",
"s. c #7F32BB",
"d. c #577D8C",
"f. c #617798",
"g. c #617B99",
"h. c #755CB2",
"j. c #755DB2",
"k. c #755EB2",
"l. c #755FB2",
"z. c #6B66A5",
"x. c #6B69A5",
"c. c #6B74A6",
"v. c #6B7AA7",
"b. c #7560B2",
"n. c #7561B2",
"m. c #7565B2",
"M. c #7565B3",
"N. c #756CB3",
"B. c #756EB3",
"V. c #7F58C1",
"C. c #7F5EC0",
"Z. c #7F5FC0",
"A. c #7F60C0",
"S. c #7F62C0",
"D. c #8534C4",
"F. c #8735C6",
"G. c #8736C8",
"H. c #8835C8",
"J. c #8936C9",
"K. c #8A36CC",
"L. c #8C38CF",
"P. c #8D37D0",
"I. c #8E37D1",
"U. c #8F38D3",
"Y. c #9038D4",
"T. c #9038D5",
"R. c #9139D5",
"E. c #9138D6",
"W. c #9339D8",
"Q. c #923AD8",
"!. c #933AD9",
"~. c #9439DA",
"^. c #943ADC",
"/. c #953ADC",
"(. c #963BDD",
"). c #963ADE",
"_. c #983BDF",
"`. c #983BE1",
"'. c #993CE0",
"]. c #993CE1",
"[. c #9B3EE5",
"{. c #9C3CE6",
"}. c #9C3DE6",
"|. c #884CCC",
" X c #884DCC",
".X c #884FCC",
"XX c #8850CC",
"oX c #8852CC",
"OX c #8854CD",
"+X c #8855CD",
"@X c #9244D9",
"#X c #9245D9",
"$X c #9246DA",
"%X c #9247DA",
"&X c #9248DA",
"*X c #9249DA",
"=X c #4E8880",
"-X c #4E8B80",
";X c #57898D",
":X c #578A8D",
">X c #578D8D",
",X c #4E9681",
"<X c #4E9A81",
"1X c #4E9B81",
"2X c #4E9B82",
"3X c #4E9C82",
"4X c #4E9D82",
"5X c #4E9E82",
"6X c #61829A",
"7X c #61869A",
/* pixels */
"                      }.^.L.F.D.D.F.L.}.                        ",
"                  }.U.L.~.}.}.}.}.}.}.L.L.!.                    ",
"              `.J.L.}.}.}.}.}.}.}.}.}.}.}.`.K.Y.}.              ",
"            J.D.].}.}.}.}.}.}.}.}.}.}.}.}.}.}.Y.s._.            ",
"          P.P.}.}.}.}.}.}.}.}.}.}.}.{.}.}.}.}.}.].D.].          ",
"        P.!.}.}.}.}.}.9.p.p.i.i.p.i.i.t.N.}.}.}.}.}.F._.        ",
"      J.T.}.}.}.}.}.B.` ` ` ` _ _ _ ! ! 0.}.}.}.}.}.}.J.}.      ",
"    ^.D.}.}.}.}.}.[.&.` ` ` _ Q Q Q R R U ;X}.}.}.}.}.].K.      ",
"    D.}.}.}.}.}.}.2X_ _ Q Q Q E E U U J J ..%X}.}.}.}.}.T.].    ",
"  ~.T.}.}.}.}.}.OX@.Q E E U U U J J A A A V 3.}.}.}.}.}.}.T.    ",
"  P.}.}.}.}.}.}.>Xe.e.w.w.w.,.,.>.A V V V m m m.}.}.}.}.}.~.`.  ",
"}.P.}.}.}.}.}.%Xb.b.j.j.j.j.}.}.}.:.m b b b l 4 }.}.}.}.}.}.P.  ",
"T.].}.}.}.}.}.;.i e q 6 : @ }.}.}..Xb l b g g g d.}.}.}.}.}.D.  ",
"D.}.}.}.}.}.f.g i i e q 1 }.}.}.}.}.=Xg g i i i b.*X}.}.}.}.D.[.",
"K.}.}.}.}.%X} l l s s e b.}.}.}.}.}.%X3 i u e =.7Xa.}.}.}.}.U.Y.",
"T.}.}.}.}.6.m b l l d 1.}.}.}.}.}.}.}.x.q q < V.$.` B.}.}.}.U.L.",
"Y.}.}.}.C.A V V b b { XX}.}.}.}.}.}.}.}.-.6 @ 8.( ( %.*X}.}.W.P.",
"K.}.}.}.q.J A V m V 5.}.}.}.}.}.}.}.}.}.|., l.@.R ! ! 2X}.}.L.T.",
"D.}.}.6XU U J A A X.}.}.}.}.}.}.}.}.}.}.}.@X>.J U R R ! A.}.D.}.",
"T.`.}.N.R R U J J  .@X}.}.}.}.}.}.}.}.}.}.g.A A A J J +.*X}.J.  ",
"}.L.}.}.t.! R R J J 6.}.}.}.}.}.}.}.}.}.%X| m V V A F ;X}.}.J.  ",
"  Y.}.}.A.( ! R R J J XX1 e e s i i d l g b b m m V o.}.}.T.`.  ",
"  ~.Y.}.}.4.( ! R U U ,.z.6 6 q e u u i g g l l b b M.}.}.T.    ",
"    D.}.}.+X` _ ( ! R U c.*.: 6 q q q e u i i l g 2.}.}.T.].    ",
"    ^.D.}.}.4X` ` _ Q R O.|.* : : : 6 6 q e u i i OX}.`.K.      ",
"      J.T.}.*X$.` ` _ ! R ,Xo & * : : 6 6 6 q e =X{.}.J.}.      ",
"        L.W.}.v.4X4X4X2X2X>X@X. o o o o $ $ $ $ @X{.H.'.        ",
"          U.T.}.}.}.}.}.}.}.}.}.}.}.}.}.}.}.}.}.`.H.`.          ",
"            ~.J.`.}.}.}.}.}.}.}.}.}.}.}.}.}.}.T.L.}.            ",
"              }.P.Y.}.}.}.}.}.}.}.}.}.}.}.].T.^.[.              ",
"                  }.L.U.F.T.].}.}._.Y.F.L.T.                    ",
"                      }.^.L.Y.Y.Y.Y.L.}.                        "
};
